<svg xmlns="http://www.w3.org/2000/svg" viewBox="0 0 1440 320"><path fill="#41b883" fill-opacity="1" d="M0,0L26.7,32C53.3,64,107,128,160,138.7C213.3,149,267,107,320,112C373.3,117,427,171,480,192C533.3,213,587,203,640,170.7C693.3,139,747,85,800,69.3C853.3,53,907,75,960,117.3C1013.3,160,1067,224,1120,256C1173.3,288,1227,288,1280,240C1333.3,192,1387,96,1413,48L1440,0L1440,320L1413.3,320C1386.7,320,1333,320,1280,320C1226.7,320,1173,320,1120,320C1066.7,320,1013,320,960,320C906.7,320,853,320,800,320C746.7,320,693,320,640,320C586.7,320,533,320,480,320C426.7,320,373,320,320,320C266.7,320,213,320,160,320C106.7,320,53,320,27,320L0,320Z"></path></svg>